Coordinates
version=1
nRows=37
nColumns=38
inDegrees=no

Units are S.I. units (second, meters, Newtons, ...)
If the header above contains a line with 'inDegrees', this indicates whether rotational values are in degrees (yes) or radians (no).

endheader
time	pelvis_tilt	pelvis_list	pelvis_rotation	pelvis_tx	pelvis_ty	pelvis_tz	hip_flexion_r	hip_adduction_r	hip_rotation_r	knee_angle_r	ankle_angle_r	subtalar_angle_r	mtp_angle_r	hip_flexion_l	hip_adduction_l	hip_rotation_l	knee_angle_l	ankle_angle_l	subtalar_angle_l	mtp_angle_l	lumbar_extension	lumbar_bending	lumbar_rotation	arm_flex_r	arm_add_r	arm_rot_r	elbow_flex_r	pro_sup_r	wrist_flex_r	wrist_dev_r	arm_flex_l	arm_add_l	arm_rot_l	elbow_flex_l	pro_sup_l	wrist_flex_l	wrist_dev_l
2.23	-0.822954	1.40821	-0.648755	0.937839	-0.429375	0.931582	0.219246	0.0556113	-0.361298	0.470802	-0.33541	0	0	-0.228992	-0.268968	-0.297878	0.828543	-0.473381	0	0	-0.153819	0.195364	-0.183836	-0.416929	-0.235412	-0.212521	0.802497	0.388566	0	0	0.0223053	-0.22897	0.108544	0.822457	1.54815	0	0
2.24	-0.836564	1.40619	-0.639517	0.935889	-0.440178	0.932741	0.201906	0.064864	-0.361107	0.460428	-0.32838	0	0	-0.195433	-0.280882	-0.294205	0.897444	-0.478063	0	0	-0.156319	0.196752	-0.191293	-0.410132	-0.25229	-0.169158	0.800932	0.357933	0	0	-0.0032853	-0.222282	0.0721061	0.831643	1.5708	0	0
2.25	-0.83456	1.40478	-0.645177	0.934081	-0.450657	0.934122	0.183123	0.0718303	-0.360341	0.449453	-0.323544	0	0	-0.162962	-0.290761	-0.291694	0.963003	-0.482227	0	0	-0.159345	0.19685	-0.187299	-0.410979	-0.251716	-0.168442	0.801749	0.360284	0	0	-0.0135639	-0.219705	0.067496	0.826821	1.5708	0	0
2.26	-0.825136	1.40442	-0.657428	0.932418	-0.46083	0.935698	0.163415	0.0778353	-0.355673	0.434837	-0.321042	0	0	-0.130165	-0.298064	-0.287683	1.02457	-0.479752	0	0	-0.163125	0.194995	-0.184548	-0.409404	-0.250656	-0.167307	0.800001	0.362948	0	0	-0.0232832	-0.217424	0.0620827	0.821032	1.5708	0	0
2.27	-0.807444	1.40447	-0.6766	0.930908	-0.470747	0.937469	0.14264	0.0825135	-0.349772	0.41882	-0.31998	0	0	-0.098105	-0.302448	-0.280443	1.08059	-0.461832	0	0	-0.167963	0.191583	-0.18314	-0.40601	-0.248794	-0.166877	0.796016	0.365928	0	0	-0.0323393	-0.215596	0.05653	0.814374	1.5708	0	0
2.28	-0.781718	1.40435	-0.702504	0.929555	-0.480488	0.939351	0.119727	0.0863959	-0.34256	0.400419	-0.319752	0	0	-0.0675649	-0.30442	-0.270902	1.13029	-0.432075	0	0	-0.173993	0.187217	-0.182296	-0.402182	-0.246036	-0.167729	0.791153	0.368943	0	0	-0.0404918	-0.214056	0.0516563	0.806707	1.5708	0	0
2.29	-0.751064	1.40432	-0.732915	0.928293	-0.490175	0.941222	0.0960713	0.0890642	-0.335786	0.382638	-0.315731	0	0	-0.0387424	-0.304775	-0.262579	1.17261	-0.410418	0	0	-0.179661	0.182136	-0.178933	-0.401101	-0.243592	-0.168227	0.787457	0.366262	0	0	-0.0453526	-0.213089	0.0526181	0.79508	1.5708	0	0
2.3	-0.72071	1.40402	-0.763065	0.927085	-0.499823	0.943019	0.0703442	0.0926622	-0.326154	0.359867	-0.315894	0	0	-0.0106444	-0.304353	-0.254931	1.21031	-0.373731	0	0	-0.186069	0.17685	-0.179504	-0.397406	-0.243267	-0.163135	0.783091	0.362698	0	0	-0.0547315	-0.211806	0.0452195	0.788591	1.5708	0	0
2.31	-0.689617	1.40396	-0.794458	0.92591	-0.509405	0.944696	0.0447483	0.0956925	-0.316914	0.337162	-0.31602	0	0	0.0169607	-0.302411	-0.248028	1.24129	-0.347454	0	0	-0.192299	0.171195	-0.179196	-0.39486	-0.242528	-0.159608	0.779686	0.360471	0	0	-0.0638627	-0.210871	0.038867	0.781795	1.5708	0	0
2.32	-0.660736	1.40441	-0.824605	0.924696	-0.518946	0.946201	0.0193413	0.0987956	-0.305849	0.312772	-0.316985	0	0	0.0444416	-0.299548	-0.242448	1.26518	-0.32906	0	0	-0.197806	0.165266	-0.178346	-0.392757	-0.241858	-0.156391	0.776858	0.358662	0	0	-0.073298	-0.210023	0.03225	0.775166	1.5708	0	0
2.33	-0.628039	1.40409	-0.859746	0.923399	-0.528475	0.94762	-0.00792134	0.102108	-0.292677	0.2859	-0.321546	0	0	0.0690854	-0.296194	-0.238541	1.28188	-0.313862	0	0	-0.203507	0.160454	-0.167214	-0.398403	-0.221789	-0.204324	0.778649	0.402056	0	0	-0.0730461	-0.210722	0.042324	0.759942	1.5708	0	0
2.34	-0.591294	1.40368	-0.899478	0.922106	-0.537975	0.948955	-0.0348171	0.103919	-0.280366	0.260513	-0.326891	0	0	0.0913229	-0.291476	-0.235387	1.29117	-0.304543	0	0	-0.212162	0.152291	-0.17648	-0.387234	-0.241036	-0.148978	0.772533	0.358332	0	0	-0.0952862	-0.208097	0.0127506	0.767182	1.5708	0	0
2.35	-0.552644	1.40388	-0.941605	0.920897	-0.547397	0.95009	-0.0578536	0.102868	-0.273256	0.243739	-0.3262	0	0	0.112136	-0.285132	-0.233242	1.29408	-0.297451	0	0	-0.218446	0.145105	-0.172619	-0.386623	-0.239088	-0.150067	0.771898	0.359716	0	0	-0.103098	-0.207559	0.00807566	0.759745	1.5708	0	0
2.36	-0.512243	1.40367	-0.985492	0.919811	-0.556692	0.951099	-0.0794569	0.100712	-0.26766	0.230487	-0.324764	0	0	0.131501	-0.277681	-0.230978	1.29162	-0.288626	0	0	-0.22524	0.137886	-0.168437	-0.386237	-0.237358	-0.151321	0.772053	0.361636	0	0	-0.110083	-0.207371	0.00473335	0.752048	1.5708	0	0
2.37	-0.471431	1.40316	-1.02966	0.918858	-0.565894	0.95196	-0.100507	0.097969	-0.262107	0.218246	-0.323051	0	0	0.149858	-0.26908	-0.228174	1.28445	-0.277204	0	0	-0.232226	0.130626	-0.164264	-0.38616	-0.235192	-0.154228	0.772909	0.363169	0	0	-0.116473	-0.207346	0.00205865	0.74423	1.5708	0	0
2.38	-0.430146	1.40203	-1.07395	0.918034	-0.575055	0.9527	-0.122032	0.0950053	-0.256631	0.205738	-0.321217	0	0	0.166774	-0.259982	-0.225306	1.27241	-0.265565	0	0	-0.239657	0.123474	-0.160139	-0.386466	-0.232526	-0.158969	0.774396	0.364721	0	0	-0.12224	-0.207627	0.000279915	0.736682	1.5708	0	0
2.39	-0.391957	1.40252	-1.11486	0.91737	-0.584276	0.953175	-0.138638	0.0901286	-0.257111	0.20133	-0.313699	0	0	0.183632	-0.250434	-0.224763	1.2543	-0.260828	0	0	-0.244078	0.115663	-0.157253	-0.38617	-0.231713	-0.159182	0.774081	0.364365	0	0	-0.127985	-0.20764	-0.00187984	0.727677	1.5708	0	0
2.4	-0.358381	1.40068	-1.15071	0.916797	-0.593445	0.95351	-0.159126	0.0879481	-0.253588	0.190766	-0.311478	0	0	0.199174	-0.240718	-0.221242	1.23489	-0.249825	0	0	-0.251269	0.109825	-0.154591	-0.38633	-0.233363	-0.154761	0.776009	0.359066	0	0	-0.13444	-0.207491	-0.0060321	0.72193	1.5708	0	0
2.41	-0.32336	1.3977	-1.1884	0.916239	-0.602648	0.953851	-0.180522	0.0855318	-0.250224	0.180785	-0.308648	0	0	0.21087	-0.232369	-0.224442	1.20968	-0.240675	0	0	-0.259338	0.103951	-0.15136	-0.385806	-0.235041	-0.150097	0.776633	0.354531	0	0	-0.140355	-0.207271	-0.00999973	0.715386	1.5708	0	0
2.42	-0.288389	1.39345	-1.22585	0.915752	-0.611877	0.954162	-0.20348	0.083273	-0.246618	0.169851	-0.305519	0	0	0.219845	-0.22441	-0.23185	1.18001	-0.233275	0	0	-0.268282	0.0982954	-0.1482	-0.384805	-0.236727	-0.145901	0.776775	0.350846	0	0	-0.145919	-0.207032	-0.0137728	0.708382	1.5708	0	0
2.43	-0.254012	1.38657	-1.26172	0.915436	-0.620949	0.954482	-0.2296	0.0817839	-0.242949	0.156844	-0.303478	0	0	0.224871	-0.216166	-0.240321	1.14556	-0.225325	0	0	-0.278831	0.0958511	-0.130934	-0.396555	-0.215074	-0.204642	0.786292	0.396617	0	0	-0.135602	-0.210544	0.0107416	0.688151	1.5708	0	0
2.44	-0.223511	1.37888	-1.29353	0.915134	-0.630025	0.954713	-0.256793	0.0808713	-0.237932	0.142264	-0.305966	0	0	0.227223	-0.207528	-0.249601	1.10549	-0.220979	0	0	-0.294648	0.0889877	-0.145211	-0.383018	-0.246771	-0.123253	0.785027	0.326117	0	0	-0.158971	-0.20594	-0.0297511	0.703236	1.5708	0	0
2.45	-0.200424	1.37363	-1.31834	0.914836	-0.639227	0.954616	-0.278801	0.0793751	-0.235257	0.133547	-0.302905	0	0	0.230193	-0.19803	-0.258802	1.05938	-0.220035	0	0	-0.304709	0.0846843	-0.14174	-0.384531	-0.247021	-0.125053	0.790641	0.323511	0	0	-0.163507	-0.205426	-0.035875	0.698956	1.5708	0	0
2.46	-0.181255	1.36928	-1.33867	0.914635	-0.648453	0.954296	-0.298758	0.07797	-0.233623	0.126834	-0.299255	0	0	0.231715	-0.187557	-0.267145	1.00614	-0.222202	0	0	-0.313051	0.0805624	-0.13918	-0.385002	-0.246745	-0.12758	0.795259	0.320185	0	0	-0.168141	-0.205002	-0.0421512	0.693541	1.5708	0	0
2.47	-0.165191	1.36542	-1.35518	0.914575	-0.657624	0.95381	-0.317261	0.0767877	-0.232603	0.121682	-0.295065	0	0	0.231046	-0.175637	-0.273634	0.944866	-0.228454	0	0	-0.32071	0.0770324	-0.137599	-0.38384	-0.246783	-0.128905	0.798691	0.3184	0	0	-0.172268	-0.20418	-0.049443	0.687462	1.5708	0	0
2.48	-0.151994	1.36209	-1.3687	0.914608	-0.666774	0.953158	-0.334332	0.0755991	-0.231873	0.118305	-0.290071	0	0	0.227942	-0.161836	-0.276989	0.875349	-0.23697	0	0	-0.327577	0.0740482	-0.136046	-0.382348	-0.247359	-0.128768	0.801978	0.31965	0	0	-0.17531	-0.202764	-0.0573589	0.680224	1.5708	0	0
2.49	-0.139349	1.35849	-1.38189	0.914686	-0.676017	0.952415	-0.350898	0.074008	-0.232451	0.117083	-0.284205	0	0	0.220449	-0.14593	-0.277495	0.796776	-0.24709	0	0	-0.334487	0.07098	-0.133493	-0.381995	-0.247321	-0.13046	0.806524	0.320713	0	0	-0.177519	-0.201266	-0.0649115	0.67187	1.5708	0	0
2.5	-0.128307	1.35671	-1.39247	0.914916	-0.685301	0.951414	-0.364279	0.0722501	-0.235611	0.118403	-0.277169	0	0	0.211269	-0.128611	-0.275333	0.709992	-0.258643	0	0	-0.338851	0.0676853	-0.131354	-0.382595	-0.246043	-0.135126	0.811101	0.321597	0	0	-0.179931	-0.200432	-0.0708258	0.662413	1.5708	0	0
2.51	-0.119058	1.35733	-1.40066	0.915259	-0.694632	0.950199	-0.374482	0.0705023	-0.238503	0.120475	-0.272483	0	0	0.198786	-0.109189	-0.267228	0.610572	-0.265447	0	0	-0.340124	0.0642006	-0.130053	-0.382655	-0.246073	-0.136459	0.814043	0.318331	0	0	-0.182177	-0.199862	-0.0762461	0.652389	1.5708	0	0
2.52	-0.113373	1.35905	-1.40503	0.915683	-0.704066	0.948745	-0.382068	0.0690905	-0.243677	0.126012	-0.263274	0	0	0.183978	-0.0909496	-0.255382	0.505376	-0.282389	0	0	-0.340387	0.0610543	-0.13078	-0.381313	-0.248312	-0.132692	0.81625	0.310898	0	0	-0.186541	-0.198669	-0.0858543	0.645496	1.5708	0	0
2.53	-0.112473	1.36222	-1.404	0.916193	-0.71371	0.946978	-0.387564	0.0686232	-0.251086	0.13285	-0.250513	0	0	0.167768	-0.0742131	-0.236239	0.397225	-0.308851	0	0	-0.33737	0.0607631	-0.12256	-0.389347	-0.231369	-0.177683	0.823298	0.344892	0	0	-0.181151	-0.199753	-0.0772686	0.628625	1.5708	0	0
2.54	-0.122944	1.36771	-1.39081	0.916943	-0.723607	0.944651	-0.390109	0.0702032	-0.259992	0.140419	-0.237661	0	0	0.154154	-0.0606473	-0.213849	0.287966	-0.347816	0	0	-0.332977	0.0587367	-0.137283	-0.378885	-0.256233	-0.117699	0.820934	0.290776	0	0	-0.199972	-0.192781	-0.113879	0.635043	1.5708	0	0
2.55	-0.143624	1.37486	-1.36714	0.917736	-0.733624	0.942033	-0.389941	0.0735102	-0.268205	0.149173	-0.227098	0	0	0.140786	-0.0503383	-0.180679	0.180721	-0.380837	0	0	-0.324827	0.0608604	-0.137867	-0.382453	-0.255627	-0.124136	0.82607	0.292172	0	0	-0.204502	-0.190216	-0.122852	0.627451	1.5708	0	0
2.56	-0.170825	1.38129	-1.33727	0.918491	-0.743758	0.939437	-0.390085	0.0779831	-0.274051	0.157779	-0.220089	0	0	0.125912	-0.0443972	-0.148075	0.0798889	-0.401577	0	0	-0.316857	0.0640368	-0.137536	-0.387249	-0.254355	-0.132918	0.832212	0.295714	0	0	-0.208486	-0.188126	-0.129994	0.619734	1.5708	0	0
2.57	-0.200047	1.386	-1.30572	0.919509	-0.754076	0.936806	-0.390382	0.0815662	-0.282875	0.171033	-0.209999	0	0	0.116433	-0.0415351	-0.137103	0.00251631	-0.422579	0	0	-0.310553	0.0677702	-0.138459	-0.39182	-0.259479	-0.129044	0.839922	0.28608	0	0	-0.214821	-0.185312	-0.139218	0.615665	1.5708	0	0
2.58	-0.222077	1.39333	-1.28195	0.920549	-0.764483	0.934133	-0.378132	0.0778832	-0.311978	0.213594	-0.172528	0	0	0.122861	-0.0401587	-0.157853	0	-0.398675	0	0	-0.298813	0.0719728	-0.121944	-0.41245	-0.241535	-0.182817	0.854886	0.317071	0	0	-0.202316	-0.188348	-0.113431	0.590048	1.5708	0	0
2.59	-0.239052	1.39668	-1.26288	0.921587	-0.774876	0.931953	-0.379175	0.0780382	-0.321076	0.23007	-0.166272	0	0	0.124743	-0.0381049	-0.175305	0	-0.388574	0	0	-0.293881	0.073189	-0.119365	-0.41844	-0.240115	-0.191084	0.860269	0.319421	0	0	-0.204609	-0.18896	-0.110018	0.582561	1.5708	0	0
